<mxfile host="app.diagrams.net" modified="2021-01-25T01:29:34.496Z" agent="5.0 (Windows)" etag="e-BxYMOVLcrsCCvqTL0y" version="14.1.8" type="github">
  <diagram id="FFt84hnDlbXeYh4UH9vT" name="Page-1">
    <mxGraphModel dx="1038" dy="577" grid="1" gridSize="10" guides="1" tooltips="1" connect="1" arrows="1" fold="1" page="1" pageScale="1" pageWidth="850" pageHeight="1100" math="0" shadow="0">
      <root>
        <mxCell id="0" />
        <mxCell id="1" parent="0" />
        <mxCell id="9fBGfOxuFb9S7JFeY_Ib-9" style="edgeStyle=orthogonalEdgeStyle;rounded=0;orthogonalLoop=1;jettySize=auto;html=1;entryX=1;entryY=0.5;entryDx=0;entryDy=0;" parent="1" source="SdujgHNRJlb0vi9iX_J2-1" target="9fBGfOxuFb9S7JFeY_Ib-1" edge="1">
          <mxGeometry relative="1" as="geometry" />
        </mxCell>
        <mxCell id="SdujgHNRJlb0vi9iX_J2-1" value="&lt;p style=&quot;line-height: 170% ; font-size: 26px&quot;&gt;算例输入&lt;br&gt;&lt;/p&gt;" style="ellipse;whiteSpace=wrap;html=1;direction=south;" parent="1" vertex="1">
          <mxGeometry x="1080" y="440" width="155" height="90" as="geometry" />
        </mxCell>
        <mxCell id="9fBGfOxuFb9S7JFeY_Ib-10" style="edgeStyle=orthogonalEdgeStyle;rounded=0;orthogonalLoop=1;jettySize=auto;html=1;entryX=1;entryY=0.5;entryDx=0;entryDy=0;" parent="1" source="9fBGfOxuFb9S7JFeY_Ib-1" target="9fBGfOxuFb9S7JFeY_Ib-2" edge="1">
          <mxGeometry relative="1" as="geometry" />
        </mxCell>
        <mxCell id="9fBGfOxuFb9S7JFeY_Ib-1" value="&lt;font style=&quot;font-size: 26px&quot;&gt;用频装备聚类  &lt;/font&gt;" style="rounded=0;whiteSpace=wrap;html=1;" parent="1" vertex="1">
          <mxGeometry x="700" y="450" width="165" height="70" as="geometry" />
        </mxCell>
        <mxCell id="9fBGfOxuFb9S7JFeY_Ib-11" style="edgeStyle=orthogonalEdgeStyle;rounded=0;orthogonalLoop=1;jettySize=auto;html=1;entryX=0.5;entryY=0;entryDx=0;entryDy=0;" parent="1" source="9fBGfOxuFb9S7JFeY_Ib-2" target="9fBGfOxuFb9S7JFeY_Ib-3" edge="1">
          <mxGeometry relative="1" as="geometry" />
        </mxCell>
        <mxCell id="9fBGfOxuFb9S7JFeY_Ib-2" value="&lt;font style=&quot;font-size: 26px&quot;&gt;蚁群初始化 &lt;br&gt;&lt;/font&gt;" style="rounded=0;whiteSpace=wrap;html=1;" parent="1" vertex="1">
          <mxGeometry x="320" y="450" width="160" height="70" as="geometry" />
        </mxCell>
        <mxCell id="9fBGfOxuFb9S7JFeY_Ib-12" style="edgeStyle=orthogonalEdgeStyle;rounded=0;orthogonalLoop=1;jettySize=auto;html=1;entryX=0.5;entryY=0;entryDx=0;entryDy=0;" parent="1" source="9fBGfOxuFb9S7JFeY_Ib-3" target="9fBGfOxuFb9S7JFeY_Ib-4" edge="1">
          <mxGeometry relative="1" as="geometry" />
        </mxCell>
        <mxCell id="9fBGfOxuFb9S7JFeY_Ib-3" value="&lt;font style=&quot;font-size: 26px&quot;&gt;蚁群迭代 &lt;/font&gt;" style="rounded=0;whiteSpace=wrap;html=1;" parent="1" vertex="1">
          <mxGeometry x="325" y="610" width="150" height="70" as="geometry" />
        </mxCell>
        <mxCell id="9fBGfOxuFb9S7JFeY_Ib-27" value="" style="edgeStyle=none;rounded=0;orthogonalLoop=1;jettySize=auto;html=1;" parent="1" source="9fBGfOxuFb9S7JFeY_Ib-4" target="9fBGfOxuFb9S7JFeY_Ib-5" edge="1">
          <mxGeometry relative="1" as="geometry" />
        </mxCell>
        <mxCell id="9fBGfOxuFb9S7JFeY_Ib-4" value="&lt;font style=&quot;font-size: 26px&quot;&gt;用频规划方案调整改进 &lt;/font&gt;" style="rounded=0;whiteSpace=wrap;html=1;" parent="1" vertex="1">
          <mxGeometry x="322.5" y="770" width="155" height="80" as="geometry" />
        </mxCell>
        <mxCell id="9fBGfOxuFb9S7JFeY_Ib-26" value="" style="edgeStyle=none;rounded=0;orthogonalLoop=1;jettySize=auto;html=1;entryX=0;entryY=0.5;entryDx=0;entryDy=0;entryPerimeter=0;" parent="1" source="9fBGfOxuFb9S7JFeY_Ib-5" target="9fBGfOxuFb9S7JFeY_Ib-5" edge="1">
          <mxGeometry relative="1" as="geometry" />
        </mxCell>
        <mxCell id="9fBGfOxuFb9S7JFeY_Ib-28" style="edgeStyle=none;rounded=0;orthogonalLoop=1;jettySize=auto;html=1;entryX=0;entryY=0.5;entryDx=0;entryDy=0;" parent="1" source="9fBGfOxuFb9S7JFeY_Ib-5" target="9fBGfOxuFb9S7JFeY_Ib-6" edge="1">
          <mxGeometry relative="1" as="geometry" />
        </mxCell>
        <mxCell id="9fBGfOxuFb9S7JFeY_Ib-5" value="&lt;font style=&quot;font-size: 26px&quot;&gt;精英个体与信息素更新 &lt;br&gt;&lt;/font&gt;" style="rounded=0;whiteSpace=wrap;html=1;" parent="1" vertex="1">
          <mxGeometry x="550" y="770" width="160" height="80" as="geometry" />
        </mxCell>
        <mxCell id="9fBGfOxuFb9S7JFeY_Ib-29" style="edgeStyle=none;rounded=0;orthogonalLoop=1;jettySize=auto;html=1;" parent="1" source="9fBGfOxuFb9S7JFeY_Ib-6" target="9fBGfOxuFb9S7JFeY_Ib-7" edge="1">
          <mxGeometry relative="1" as="geometry" />
        </mxCell>
        <mxCell id="9fBGfOxuFb9S7JFeY_Ib-30" style="edgeStyle=none;rounded=0;orthogonalLoop=1;jettySize=auto;html=1;entryX=1;entryY=0.5;entryDx=0;entryDy=0;" parent="1" source="9fBGfOxuFb9S7JFeY_Ib-6" target="9fBGfOxuFb9S7JFeY_Ib-3" edge="1">
          <mxGeometry relative="1" as="geometry">
            <mxPoint x="470" y="670" as="targetPoint" />
            <Array as="points">
              <mxPoint x="884" y="645" />
            </Array>
          </mxGeometry>
        </mxCell>
        <mxCell id="9fBGfOxuFb9S7JFeY_Ib-6" value="&lt;font style=&quot;font-size: 26px&quot;&gt;终止准则  &lt;br&gt;&lt;/font&gt;" style="rhombus;whiteSpace=wrap;html=1;rounded=0;" parent="1" vertex="1">
          <mxGeometry x="780" y="737.5" width="210" height="145" as="geometry" />
        </mxCell>
        <mxCell id="9fBGfOxuFb9S7JFeY_Ib-7" value="&lt;div&gt;&lt;font style=&quot;font-size: 26px&quot;&gt;输出用频规&lt;/font&gt;&lt;/div&gt;&lt;div&gt;&lt;font style=&quot;font-size: 26px&quot;&gt;划方案  &lt;/font&gt;&lt;/div&gt;" style="ellipse;whiteSpace=wrap;html=1;rounded=0;" parent="1" vertex="1">
          <mxGeometry x="1080" y="755" width="160" height="110" as="geometry" />
        </mxCell>
        <mxCell id="9fBGfOxuFb9S7JFeY_Ib-17" value="&lt;font style=&quot;font-size: 26px&quot;&gt;不满足 &lt;/font&gt;" style="text;html=1;strokeColor=none;fillColor=none;align=center;verticalAlign=middle;whiteSpace=wrap;rounded=0;" parent="1" vertex="1">
          <mxGeometry x="740" y="620" width="180" height="120" as="geometry" />
        </mxCell>
        <mxCell id="9fBGfOxuFb9S7JFeY_Ib-18" value="&lt;font style=&quot;font-size: 26px&quot;&gt;满足  &lt;/font&gt;" style="text;html=1;strokeColor=none;fillColor=none;align=center;verticalAlign=middle;whiteSpace=wrap;rounded=0;" parent="1" vertex="1">
          <mxGeometry x="940" y="720" width="180" height="120" as="geometry" />
        </mxCell>
      </root>
    </mxGraphModel>
  </diagram>
</mxfile>
